<svg width="72" height="72" viewBox="0 0 72 72" fill="none" xmlns="http://www.w3.org/2000/svg">
<rect width="72" height="72" rx="7.38462" fill="url(#paint0_linear_48_876)"/>
<path fill-rule="evenodd" clip-rule="evenodd" d="M36 15C30.6827 15 26.3721 19.2906 26.3721 24.5833C26.3721 29.8761 30.6827 34.1667 36 34.1667C41.3173 34.1667 45.6279 29.8761 45.6279 24.5833C45.6279 19.2906 41.3173 15 36 15ZM28.8837 24.5833C28.8837 20.6713 32.0698 17.5 36 17.5C39.9302 17.5 43.1163 20.6713 43.1163 24.5833C43.1163 28.4953 39.9302 31.6667 36 31.6667C32.0698 31.6667 28.8837 28.4953 28.8837 24.5833Z" fill="#877353"/>
<path d="M27.6279 40C25.0744 40 22.6255 41.0097 20.8199 42.8069C19.0144 44.6041 18 47.0417 18 49.5833V53.75C18 54.4404 18.5622 55 19.2558 55C19.9494 55 20.5116 54.4404 20.5116 53.75V49.5833C20.5116 47.7047 21.2614 45.903 22.5959 44.5747C23.9305 43.2463 25.7406 42.5 27.6279 42.5H44.3721C46.2594 42.5 48.0695 43.2463 49.4041 44.5747C50.7386 45.903 51.4884 47.7047 51.4884 49.5833V53.75C51.4884 54.4404 52.0506 55 52.7442 55C53.4378 55 54 54.4404 54 53.75V49.5833C54 47.0417 52.9856 44.6041 51.18 42.8069C49.3745 41.0097 46.9256 40 44.3721 40H27.6279Z" fill="#877353"/>
<defs>
<linearGradient id="paint0_linear_48_876" x1="36" y1="0" x2="36" y2="72" gradientUnits="userSpaceOnUse">
<stop stop-color="#F3EDE3"/>
<stop offset="1" stop-color="#ECE0CE"/>
</linearGradient>
</defs>
</svg>
