<svg width="72" height="72" viewBox="0 0 72 72" fill="none" xmlns="http://www.w3.org/2000/svg">
<rect width="72" height="72" rx="7.38462" fill="url(#paint0_linear_48_882)"/>
<path fill-rule="evenodd" clip-rule="evenodd" d="M52.7248 21.2941C48.3555 16.902 41.2695 16.902 36.9002 21.294L36 22.1989L35.0999 21.2941C30.7306 16.902 23.6445 16.902 19.2751 21.294C14.9083 25.6836 14.9083 32.7986 19.2751 37.1882L36 54L52.7247 37.1882C57.0917 32.7986 57.0918 25.6836 52.7248 21.2941ZM38.8767 23.268C42.1554 19.9722 47.4695 19.9722 50.7482 23.268C54.0296 26.5663 54.0297 31.9159 50.7483 35.2142L36 50.0392L21.2516 35.2143C17.9704 31.9159 17.9704 26.5664 21.2516 23.268C24.5305 19.9722 29.8447 19.9722 33.1233 23.268L36 26.1596L38.8767 23.268Z" fill="#8F7C5E"/>
<defs>
<linearGradient id="paint0_linear_48_882" x1="36" y1="0" x2="36" y2="72" gradientUnits="userSpaceOnUse">
<stop stop-color="#F3EDE3"/>
<stop offset="1" stop-color="#ECE0CE"/>
</linearGradient>
</defs>
</svg>
