<svg width="72" height="72" viewBox="0 0 72 72" fill="none" xmlns="http://www.w3.org/2000/svg">
<rect width="72" height="72" rx="7.38462" fill="url(#paint0_linear_48_894)"/>
<path fill-rule="evenodd" clip-rule="evenodd" d="M45.5884 47.5617C42.4538 50.245 38.3826 51.8657 33.9329 51.8657C24.0288 51.8657 16 43.8369 16 33.9329C16 24.0288 24.0288 16 33.9329 16C43.8369 16 51.8657 24.0288 51.8657 33.9329C51.8657 38.3826 50.245 42.4538 47.5617 45.5884L55.5913 53.618C56.1362 54.1629 56.1362 55.0464 55.5913 55.5913C55.0464 56.1362 54.1629 56.1362 53.618 55.5913L45.5884 47.5617ZM18.7907 33.9329C18.7907 25.5701 25.5701 18.7907 33.9329 18.7907C42.2956 18.7907 49.075 25.5701 49.075 33.9329C49.075 38.0324 47.4458 41.7515 44.7996 44.4779C44.7387 44.5217 44.6805 44.5709 44.6257 44.6257C44.5709 44.6805 44.5217 44.7387 44.4779 44.7996C41.7515 47.4458 38.0324 49.075 33.9329 49.075C25.5701 49.075 18.7907 42.2956 18.7907 33.9329Z" fill="#877353"/>
<defs>
<linearGradient id="paint0_linear_48_894" x1="36" y1="0" x2="36" y2="72" gradientUnits="userSpaceOnUse">
<stop stop-color="#F3EDE3"/>
<stop offset="1" stop-color="#ECE0CE"/>
</linearGradient>
</defs>
</svg>
