<svg width="72" height="72" viewBox="0 0 72 72" fill="none" xmlns="http://www.w3.org/2000/svg">
<rect width="72" height="72" rx="7.38462" fill="url(#paint0_linear_48_888)"/>
<path fill-rule="evenodd" clip-rule="evenodd" d="M38.8188 19.0349L42.1556 29.2902L53.0259 29.2666C55.9017 29.2604 57.0984 32.9111 54.7682 34.5818L45.9596 40.8963L49.3416 51.1371C50.236 53.8464 47.1031 56.1027 44.7805 54.422L36 48.0693L27.2195 54.422C24.8969 56.1027 21.764 53.8465 22.6584 51.1371L26.0404 40.8963L17.2318 34.5818C14.9016 32.9112 16.0983 29.2604 18.9741 29.2666L29.8444 29.2902L33.1812 19.0349C34.0638 16.3217 37.9362 16.3217 38.8188 19.0349ZM35.7831 20.0054L35.8237 19.8797C35.8789 19.7102 36.1211 19.7101 36.1763 19.8797L36.2169 20.0054L40.0933 31.9196C40.1182 31.9956 40.1896 32.047 40.27 32.0468L53.0318 32.0192C53.2116 32.0188 53.2862 32.247 53.1407 32.3514L42.7996 39.7648C42.7345 39.8116 42.7074 39.8947 42.7323 39.9706L46.7027 51.9934C46.7582 52.1628 46.5625 52.3038 46.4175 52.1987L36.1089 44.7406C36.0443 44.6935 35.9557 44.6935 35.8911 44.7406L25.5825 52.1987C25.4375 52.3038 25.2418 52.1628 25.2974 51.9934L29.2677 39.9706C29.2926 39.8947 29.2655 39.8116 29.2004 39.7648L18.8593 32.3514C18.7138 32.247 18.7884 32.0188 18.9682 32.0192L31.73 32.0468C31.8104 32.047 31.8818 31.9956 31.9067 31.9196L35.7831 20.0054Z" fill="#877353"/>
<defs>
<linearGradient id="paint0_linear_48_888" x1="36" y1="0" x2="36" y2="72" gradientUnits="userSpaceOnUse">
<stop stop-color="#F3EDE3"/>
<stop offset="1" stop-color="#ECE0CE"/>
</linearGradient>
</defs>
</svg>
