<svg width="72" height="72" viewBox="0 0 72 72" fill="none" xmlns="http://www.w3.org/2000/svg">
<rect width="72" height="72" rx="7.38462" fill="url(#paint0_linear_48_900)"/>
<path d="M45.3387 31.6861C45.8616 31.1676 45.8651 30.3234 45.3465 29.8005C44.828 29.2776 43.9838 29.2741 43.4609 29.7927L32.8498 40.3161L28.5387 36.0406C28.0159 35.5221 27.1716 35.5256 26.6531 36.0484C26.1346 36.5713 26.1381 37.4155 26.6609 37.934L31.9109 43.1407C32.4307 43.6561 33.2689 43.6561 33.7887 43.1407L45.3387 31.6861Z" fill="#877353"/>
<path fill-rule="evenodd" clip-rule="evenodd" d="M36 16C24.9543 16 16 24.9543 16 36C16 47.0457 24.9543 56 36 56C47.0457 56 56 47.0457 56 36C56 24.9543 47.0457 16 36 16ZM18.6667 36C18.6667 26.4271 26.4271 18.6667 36 18.6667C45.5729 18.6667 53.3333 26.4271 53.3333 36C53.3333 45.5729 45.5729 53.3333 36 53.3333C26.4271 53.3333 18.6667 45.5729 18.6667 36Z" fill="#877353"/>
<defs>
<linearGradient id="paint0_linear_48_900" x1="36" y1="0" x2="36" y2="72" gradientUnits="userSpaceOnUse">
<stop stop-color="#F3EDE3"/>
<stop offset="1" stop-color="#ECE0CE"/>
</linearGradient>
</defs>
</svg>
