<svg width="16" height="15" viewBox="0 0 16 15" fill="none" xmlns="http://www.w3.org/2000/svg">
<path fill-rule="evenodd" clip-rule="evenodd" d="M10.6406 7.5C10.6406 8.95838 9.45838 10.1406 8 10.1406C6.54162 10.1406 5.35938 8.95838 5.35938 7.5C5.35938 6.04162 6.54162 4.85938 8 4.85938C9.45838 4.85938 10.6406 6.04162 10.6406 7.5ZM9.84062 7.5C9.84062 8.51655 9.01655 9.34062 8 9.34062C6.98345 9.34062 6.15938 8.51655 6.15938 7.5C6.15938 6.48345 6.98345 5.65937 8 5.65937C9.01655 5.65937 9.84062 6.48345 9.84062 7.5Z" fill="#877353"/>
<path fill-rule="evenodd" clip-rule="evenodd" d="M8.00008 3.125C6.95475 3.125 5.95475 3.31437 5.03475 3.65937C4.72973 3.77426 4.49657 3.88598 4.26727 4.00049C4.03798 4.115 3.82387 4.23547 3.55341 4.3925C2.31502 5.17108 1.31896 6.24356 0.666748 7.50062C2.01875 10.0956 4.79475 11.8756 8.00008 11.8756C9.04541 11.8756 10.0454 11.6862 10.9654 11.3412C11.2727 11.2191 11.5104 11.1211 11.7421 11.0082C11.9638 10.9001 12.1801 10.7782 12.4467 10.6081C13.6851 9.82954 14.6812 8.75707 15.3334 7.5C13.9814 4.905 11.2054 3.125 8.00008 3.125ZM11.8687 10.0669C12.9181 9.44187 13.8047 8.565 14.4321 7.50062C13.1241 5.28125 10.6894 3.875 8.00008 3.875C7.2028 3.87547 6.41114 4.00008 5.65741 4.24375C5.26977 4.36907 4.5 4.7139 4.13141 4.93437C3.06108 5.57462 2.17962 6.45687 1.56808 7.5C2.87608 9.71875 5.31075 11.125 8.00008 11.125C8.79736 11.1245 9.58902 10.9999 10.3427 10.7562C10.6495 10.6233 10.8923 10.5179 11.1138 10.4191C11.3718 10.3039 11.601 10.1976 11.8687 10.0669Z" fill="#877353"/>
</svg>
