<svg width="17" height="15" viewBox="0 0 17 15" fill="none" xmlns="http://www.w3.org/2000/svg">
<path fill-rule="evenodd" clip-rule="evenodd" d="M12.78 10.6081L14.6167 12.33L14.0507 12.86L2.9 2.40625L3.46467 1.875L5.368 3.65937C6.288 3.31438 7.288 3.125 8.33333 3.125C11.5387 3.125 14.3147 4.905 15.6667 7.5C15.0145 8.75707 14.0184 9.82954 12.78 10.6081ZM5.99067 4.24375L7.1 5.28375C7.60329 5.03708 8.17744 4.94749 8.73882 5.02802C9.3002 5.10856 9.8195 5.35501 10.2211 5.73149C10.6227 6.10797 10.8855 6.59481 10.9714 7.12111C11.0573 7.6474 10.9618 8.18567 10.6987 8.6575L12.202 10.0669C13.2513 9.44188 14.138 8.565 14.7653 7.50063C13.4573 5.28125 11.0227 3.875 8.33333 3.875C7.53605 3.87547 6.74439 4.00008 5.99067 4.24375ZM10.092 8.08875C10.211 7.77669 10.233 7.43938 10.1555 7.11605C10.0779 6.79273 9.90411 6.49668 9.65416 6.26235C9.40421 6.02803 9.08842 5.86505 8.74354 5.79238C8.39866 5.71972 8.03886 5.74035 7.706 5.85187L10.092 8.08875ZM11.2987 11.3412C10.3787 11.6862 9.37867 11.8756 8.33333 11.8756C5.128 11.8756 2.352 10.0956 1 7.50063C1.65221 6.24356 2.64828 5.17108 3.88667 4.3925L4.46467 4.93438C3.39433 5.57462 2.51287 6.45687 1.90133 7.5C3.20933 9.71875 5.644 11.125 8.33333 11.125C9.13061 11.1245 9.92227 10.9999 10.676 10.7562L11.2987 11.3412ZM5.96867 6.34375L6.57467 6.9125C6.4557 7.22456 6.4337 7.56187 6.51121 7.8852C6.58872 8.20852 6.76256 8.50457 7.01251 8.7389C7.26246 8.97322 7.57824 9.1362 7.92312 9.20887C8.268 9.28153 8.6278 9.2609 8.96067 9.14937L9.56733 9.71688C9.06404 9.96354 8.4899 10.0531 7.92851 9.9726C7.36713 9.89207 6.84784 9.64561 6.44626 9.26913C6.04468 8.89265 5.78179 8.40581 5.69589 7.87952C5.60999 7.35322 5.70555 6.81558 5.96867 6.34375Z" fill="#877353"/>
</svg>
