<svg width="64" height="76" viewBox="0 0 64 76" fill="none" xmlns="http://www.w3.org/2000/svg">
<path d="M54.6269 9.21912C42.1304 -3.07304 21.8696 -3.07304 9.37305 9.21912C6.40606 12.1177 4.04846 15.5801 2.43882 19.4029C0.829188 23.2257 0 27.3316 0 31.4794C0 35.6272 0.829188 39.7332 2.43882 43.5559C4.04846 47.3787 6.40606 50.8411 9.37305 53.7397L31.998 76L54.6269 53.7397C57.5939 50.8411 59.9515 47.3787 61.5612 43.5559C63.1708 39.7332 64 35.6272 64 31.4794C64 27.3316 63.1708 23.2257 61.5612 19.4029C59.9515 15.5801 57.5939 12.1177 54.6269 9.21912ZM31.998 41.9995C29.3259 41.9995 26.8178 40.9595 24.9257 39.0715C23.0526 37.1945 22.0007 34.6511 22.0007 31.9994C22.0007 29.3477 23.0526 26.8043 24.9257 24.9273C26.8138 23.0393 29.3259 21.9993 31.998 21.9993C34.6701 21.9993 37.1822 23.0393 39.0703 24.9273C40.9434 26.8043 41.9953 29.3477 41.9953 31.9994C41.9953 34.6511 40.9434 37.1945 39.0703 39.0715C37.1822 40.9595 34.6701 41.9995 31.998 41.9995Z" fill="#6B1B1F"/>
</svg>
