<svg width="24" height="24" viewBox="0 0 24 24" fill="none" xmlns="http://www.w3.org/2000/svg">
<path d="M17.6569 5.30377C14.5329 2.23077 9.4679 2.23077 6.3439 5.30377C5.60218 6.02841 5.0128 6.894 4.61041 7.84968C4.20802 8.80536 4.00073 9.83184 4.00073 10.8688C4.00073 11.9057 4.20802 12.9322 4.61041 13.8879C5.0128 14.8435 5.60218 15.7091 6.3439 16.4338L11.9999 21.9988L17.6569 16.4338C18.3986 15.7091 18.988 14.8435 19.3904 13.8879C19.7928 12.9322 20.0001 11.9057 20.0001 10.8688C20.0001 9.83184 19.7928 8.80536 19.3904 7.84968C18.988 6.894 18.3986 6.02841 17.6569 5.30377ZM11.9999 13.4988C11.3319 13.4988 10.7049 13.2388 10.2319 12.7668C9.76365 12.2975 9.50067 11.6617 9.50067 10.9988C9.50067 10.3359 9.76365 9.70002 10.2319 9.23077C10.7039 8.75877 11.3319 8.49877 11.9999 8.49877C12.6679 8.49877 13.2959 8.75877 13.7679 9.23077C14.2361 9.70002 14.4991 10.3359 14.4991 10.9988C14.4991 11.6617 14.2361 12.2975 13.7679 12.7668C13.2959 13.2388 12.6679 13.4988 11.9999 13.4988Z" fill="#6B1B1F"/>
</svg>
