<svg width="17" height="15" viewBox="0 0 17 15" fill="none" xmlns="http://www.w3.org/2000/svg">
<path d="M8.33326 14.0625C6.94879 14.0625 5.59541 13.6776 4.44426 12.9565C3.29312 12.2354 2.39591 11.2105 1.8661 10.0114C1.33628 8.81222 1.19766 7.49272 1.46776 6.21972C1.73785 4.94672 2.40454 3.7774 3.38351 2.85961C4.36247 1.94183 5.60976 1.31682 6.96762 1.0636C8.32549 0.810384 9.73296 0.940343 11.012 1.43704C12.2911 1.93374 13.3844 2.77488 14.1535 3.85407C14.9227 4.93327 15.3333 6.20206 15.3333 7.5C15.3333 9.24049 14.5958 10.9097 13.283 12.1404C11.9702 13.3711 10.1898 14.0625 8.33326 14.0625ZM8.33326 1.875C7.14657 1.875 5.98653 2.2049 4.99983 2.82299C4.01314 3.44107 3.2441 4.31957 2.78998 5.34741C2.33585 6.37524 2.21703 7.50624 2.44854 8.59739C2.68005 9.68853 3.2515 10.6908 4.09061 11.4775C4.92973 12.2641 5.99883 12.7999 7.16271 13.0169C8.3266 13.234 9.533 13.1226 10.6294 12.6968C11.7257 12.2711 12.6628 11.5501 13.3221 10.6251C13.9814 9.70006 14.3333 8.61252 14.3333 7.5C14.3333 6.00816 13.7011 4.57742 12.5759 3.52253C11.4507 2.46764 9.92455 1.875 8.33326 1.875Z" fill="#877353"/>
<path d="M10.6283 10.3125L7.83325 7.69219V3.28125H8.83325V7.30312L11.3333 9.65156L10.6283 10.3125Z" fill="#877353"/>
</svg>
