<svg width="233" height="48" viewBox="0 0 233 48" fill="none" xmlns="http://www.w3.org/2000/svg">
<path d="M38.3811 39.2058C38.1397 39.6922 37.6431 40 37.0995 40H26.9572C26.1716 40 25.533 39.3671 25.5269 38.5825L25.4138 24.0343C25.4019 22.4928 23.2913 22.0606 22.673 23.4731L15.8126 39.1437C15.5848 39.6639 15.0704 40 14.502 40H4.32964C3.57543 40 2.95081 39.4151 2.90225 38.6634L0.503028 1.52055C0.449837 0.697093 1.10422 0 1.93042 0H11.9383C12.7336 0 13.3762 0.647972 13.3686 1.44227L13.2119 17.7616C13.1971 19.3033 15.3002 19.7718 15.9427 18.37L23.9812 0.833899C24.2141 0.325814 24.7223 0 25.2818 0H31.8961C32.6714 0 33.3055 0.616875 33.326 1.39092L33.7598 17.8253C33.8004 19.3636 35.9128 19.7593 36.5087 18.3403L43.8437 0.875973C44.0666 0.345296 44.5865 0 45.1627 0H55.5299C56.591 0 57.2827 1.11336 56.8115 2.06292L38.3811 39.2058Z" fill="url(#paint0_linear_1_3)"/>
<path fill-rule="evenodd" clip-rule="evenodd" d="M63.956 39.9999C56.0971 39.9999 50.6563 36.0439 50.6563 28.8419C50.6563 21.0312 56.6009 14.2856 65.1147 14.2856C71.16 14.2856 76.5 17.9881 76.5 25.4437C76.5 26.6148 76.352 27.91 76.1768 28.8951C76.0643 29.528 75.4999 29.9577 74.8563 29.9577H59.6743C59.6463 29.9577 59.6235 29.9804 59.6235 30.0084C59.6235 30.3634 61.0845 33.0515 64.6109 33.0515C65.8506 33.0515 67.2382 32.8601 68.3632 32.5185C69.2092 32.2617 70.2409 32.5632 70.6146 33.3636L72.1414 36.6334C72.4447 37.2829 72.2221 38.0639 71.5783 38.3803C69.2721 39.5136 66.4654 39.9999 63.956 39.9999ZM60.4799 24.1758H68.49V24.0236C68.49 23.3135 67.6336 21.2341 64.762 21.2341C62.3439 21.2341 60.7822 23.1107 60.4799 24.1758Z" fill="url(#paint1_linear_1_3)"/>
<path d="M70.757 11.4286C73.9288 11.4286 76.5 8.8702 76.5 5.71429C76.5 2.55837 73.9288 0 70.757 0C67.5852 0 65.0139 2.55837 65.0139 5.71429C65.0139 8.8702 67.5852 11.4286 70.757 11.4286Z" fill="url(#paint2_linear_1_3)"/>
<path d="M91.7 32.84C92.38 33.68 93.74 34.12 94.7 34.12C96.66 34.12 98.3 32.76 98.3 30.32C98.3 27.92 96.66 26.56 94.7 26.56C93.74 26.56 92.38 27.04 91.7 27.88V32.84ZM91.7 40H84.5V13.32H91.7V22.72C93.22 20.88 95.18 20.2 97.14 20.2C101.9 20.2 105.66 23.92 105.66 30.32C105.66 36.96 101.82 40.48 97.14 40.48C95.18 40.48 93.34 39.8 91.7 37.96V40ZM115.928 40H108.728V20.68H115.928V22.8C117.128 21.4 119.648 20.12 121.848 20.12V27C121.488 26.88 120.888 26.8 120.208 26.8C118.688 26.8 116.728 27.2 115.928 28.16V40ZM143.074 40H135.874V38.16C134.794 39.52 132.434 40.48 130.034 40.48C127.154 40.48 123.394 38.52 123.394 34.12C123.394 29.32 127.154 27.96 130.034 27.96C132.554 27.96 134.834 28.76 135.874 30.08V28.08C135.874 26.72 134.634 25.68 132.274 25.68C130.474 25.68 128.434 26.4 126.914 27.56L124.474 23.12C127.074 21.04 130.674 20.2 133.594 20.2C138.394 20.2 143.074 21.88 143.074 28.32V40ZM133.034 35.8C134.154 35.8 135.394 35.44 135.874 34.76V33.68C135.394 33 134.154 32.64 133.034 32.64C131.834 32.64 130.514 33.04 130.514 34.24C130.514 35.44 131.834 35.8 133.034 35.8ZM167.738 40H160.538V29.32C160.538 27.32 159.458 26.56 157.738 26.56C156.098 26.56 155.258 27.4 154.658 28.08V40H147.458V20.68H154.658V22.88C155.778 21.6 157.898 20.2 161.298 20.2C165.778 20.2 167.738 22.92 167.738 26.28V40ZM191.995 40H184.795V37.96C183.155 39.8 181.315 40.48 179.355 40.48C174.675 40.48 170.835 36.96 170.835 30.32C170.835 23.92 174.595 20.2 179.355 20.2C181.315 20.2 183.275 20.88 184.795 22.72V13.32H191.995V40ZM181.795 34.12C182.755 34.12 184.115 33.64 184.795 32.8V27.84C184.115 27 182.755 26.56 181.795 26.56C179.835 26.56 178.195 27.92 178.195 30.32C178.195 32.72 179.835 34.12 181.795 34.12ZM200.023 40.48C197.703 40.48 195.743 38.52 195.743 36.2C195.743 33.88 197.703 31.92 200.023 31.92C202.343 31.92 204.303 33.88 204.303 36.2C204.303 38.52 202.343 40.48 200.023 40.48ZM215.02 40.48C210.74 40.48 208.38 38.44 208.38 34.4V26.92H205.18V20.68H208.38V15.4H215.58V20.68H219.5V26.92H215.58V32.32C215.58 33.32 216.22 34.12 217.18 34.12C217.82 34.12 218.46 33.92 218.62 33.76L219.9 39.2C219.14 39.88 217.46 40.48 215.02 40.48ZM226.173 19.28C223.933 19.28 222.133 17.48 222.133 15.24C222.133 13 223.933 11.2 226.173 11.2C228.413 11.2 230.213 13 230.213 15.24C230.213 17.48 228.413 19.28 226.173 19.28ZM221.733 47.84C218.813 47.84 217.893 47.48 216.333 46.52L218.053 41.2C218.853 41.8 219.333 41.96 220.453 41.96C221.773 41.96 222.573 41 222.573 39.16V20.68H229.773V39.16C229.773 44.12 227.333 47.84 221.733 47.84Z" fill="#0D131F"/>
<defs>
<linearGradient id="paint0_linear_1_3" x1="39.5013" y1="5.93451e-09" x2="38.5025" y2="40.0001" gradientUnits="userSpaceOnUse">
<stop stop-color="#3068D8"/>
<stop offset="1" stop-color="#275ACF"/>
</linearGradient>
<linearGradient id="paint1_linear_1_3" x1="39.5013" y1="5.93451e-09" x2="38.5025" y2="40.0001" gradientUnits="userSpaceOnUse">
<stop stop-color="#3068D8"/>
<stop offset="1" stop-color="#275ACF"/>
</linearGradient>
<linearGradient id="paint2_linear_1_3" x1="39.5013" y1="5.93451e-09" x2="38.5025" y2="40.0001" gradientUnits="userSpaceOnUse">
<stop stop-color="#3068D8"/>
<stop offset="1" stop-color="#275ACF"/>
</linearGradient>
</defs>
</svg>
